<?xml version="1.0" encoding="UTF-8"?>
<!-- Created with Inkscape (http://www.inkscape.org/) -->
<svg width="64" height="64" version="1.1" viewBox="0 0 64 64" xmlns="http://www.w3.org/2000/svg">
 <circle cx="32" cy="32" r="28" fill-opacity=".5"/>
 <path d="m16 15a1 1 0 0 0-0.70703 0.29297 1 1 0 0 0 0 1.4141l15.293 15.293-15.293 15.293a1 1 0 0 0 0 1.4141 1 1 0 0 0 1.4141 0l15.293-15.293 15.293 15.293a1 1 0 0 0 1.4141 0 1 1 0 0 0 0-1.4141l-15.293-15.293 15.293-15.293a1 1 0 0 0 0-1.4141 1 1 0 0 0-1.4141 0l-15.293 15.293-15.293-15.293a1 1 0 0 0-0.70703-0.29297z" fill="#d6d6d6"/>
</svg>