<?xml version="1.0" encoding="UTF-8" standalone="no"?>
<!-- Created with Inkscape (http://www.inkscape.org/) -->

<svg
   width="64"
   height="64"
   viewBox="0 0 64 63.999997"
   version="1.1"
   id="svg1"
   xmlns="http://www.w3.org/2000/svg"
   xmlns:svg="http://www.w3.org/2000/svg">
  <defs
     id="defs1" />
  <path
     style="color:#000000;fill:#cdd6f4;stroke-linecap:round;stroke-linejoin:round;stroke-dashoffset:6.138;-inkscape-stroke:none;paint-order:markers fill stroke;stroke:none;fill-opacity:1"
     d="M 31.984375 6.9863281 A 1.0001 1.0001 0 0 0 31 8 L 31 43.585938 L 22.707031 35.292969 A 1.0001 1.0001 0 0 0 21.990234 34.990234 A 1.0001 1.0001 0 0 0 21.292969 36.707031 L 31.205078 46.619141 A 1.0001 1.0001 0 0 0 32.796875 46.617188 L 42.707031 36.707031 A 1.0001 1.0001 0 1 0 41.292969 35.292969 L 33 43.585938 L 33 8 A 1.0001 1.0001 0 0 0 31.984375 6.9863281 z M 7.984375 40.986328 A 1.0001 1.0001 0 0 0 7 42 L 7 56 A 1.0001 1.0001 0 0 0 8 57 L 56 57 A 1.0001 1.0001 0 0 0 57 56 L 57 42 A 1.0001 1.0001 0 1 0 55 42 L 55 55 L 9 55 L 9 42 A 1.0001 1.0001 0 0 0 7.984375 40.986328 z " />
</svg>
