<svg xmlns="http://www.w3.org/2000/svg" width="8mm" height="8mm" viewBox="0 0 8 8"><path style="fill:#fff;fill-opacity:1;stroke:none;stroke-width:.240393px;stroke-linecap:butt;stroke-linejoin:miter;stroke-opacity:1" d="M159.104 156.704c-1.426 0-3.162 1.736-3.162 2.4 0 .665 1.74 2.404 3.162 2.404s3.162-1.74 3.163-2.403c0-.664-1.736-2.4-3.163-2.4zm-.006.721a1.679 1.679 0 0 1 .006 0 1.679 1.679 0 0 1 1.68 1.679 1.679 1.679 0 0 1-1.68 1.68 1.679 1.679 0 0 1-1.678-1.68 1.679 1.679 0 0 1 1.673-1.679zm.006.696a.983.983 0 0 0-.982.983.983.983 0 0 0 .982.983.983.983 0 0 0 .984-.983.983.983 0 0 0-.984-.983z" transform="translate(-155.104 -155.104)"/></svg>