<?xml version="1.0" encoding="UTF-8" standalone="no"?>
<!-- Created with Inkscape (http://www.inkscape.org/) -->

<svg
   width="64"
   height="64"
   viewBox="0 0 64 63.999997"
   version="1.1"
   id="svg1"
   xmlns="http://www.w3.org/2000/svg"
   xmlns:svg="http://www.w3.org/2000/svg">
  <defs
     id="defs1" />
  <path
     style="color:#000000;fill:#cdd6f4;stroke-linecap:round;stroke-linejoin:round;stroke-dashoffset:6.138;-inkscape-stroke:none;paint-order:markers fill stroke;stroke:none;fill-opacity:1"
     d="M 26 7 C 19.102377 7 14.197841 9.8928224 11.193359 14.482422 C 8.1888785 19.072021 7 25.253265 7 32 C 7 38.746735 8.1888785 44.927979 11.193359 49.517578 C 14.197841 54.107178 19.102377 57 26 57 A 1 1 0 0 0 27 56 A 1 1 0 0 0 26 55 C 19.642815 55 15.547034 52.520503 12.865234 48.423828 C 10.183436 44.327153 9 38.508072 9 32 C 9 25.491928 10.183436 19.672847 12.865234 15.576172 C 15.547034 11.479497 19.642815 9 26 9 A 1 1 0 0 0 27 8 A 1 1 0 0 0 26 7 z M 32 7 A 1 1 0 0 0 31 8 L 31 45.96875 C 27.464196 45.744681 25.848534 44.330575 24.966797 42.958984 C 24.005783 41.464074 24 40 24 40 A 1 1 0 0 0 23 39 A 1 1 0 0 0 22 40 C 22 40 21.994201 42.035933 23.283203 44.041016 C 24.478761 45.900772 26.863325 47.715317 31 47.96875 L 31 56 A 1 1 0 0 0 32 57 A 1 1 0 0 0 33 56 L 33 41.007812 C 36.88572 41.124963 38.610934 42.606376 39.533203 44.041016 C 40.494217 45.535926 40.5 47 40.5 47 A 1 1 0 0 0 41.5 48 A 1 1 0 0 0 42.5 47 C 42.5 47 42.505799 44.964067 41.216797 42.958984 C 39.973797 41.025429 37.446505 39.139907 33 39.007812 L 33 8 A 1 1 0 0 0 32 7 z M 38 7 A 1 1 0 0 0 37 8 A 1 1 0 0 0 38 9 C 44.357185 9 48.452966 11.479497 51.134766 15.576172 C 53.816564 19.672847 55 25.491928 55 32 C 55 38.508072 53.816564 44.327153 51.134766 48.423828 C 48.452966 52.520503 44.357185 55 38 55 A 1 1 0 0 0 37 56 A 1 1 0 0 0 38 57 C 44.897623 57 49.802159 54.107178 52.806641 49.517578 C 55.811122 44.927979 57 38.746735 57 32 C 57 25.253265 55.811122 19.072021 52.806641 14.482422 C 49.802159 9.8928224 44.897623 7 38 7 z M 25 19 A 1 1 0 0 0 24 20 L 24 29 A 1 1 0 0 0 25 30 A 1 1 0 0 0 26 29 L 26 20 A 1 1 0 0 0 25 19 z M 39 19 A 1 1 0 0 0 38 20 L 38 29 A 1 1 0 0 0 39 30 A 1 1 0 0 0 40 29 L 40 20 A 1 1 0 0 0 39 19 z " />
</svg>
