<svg xmlns="http://www.w3.org/2000/svg" width="8mm" height="8mm" viewBox="0 0 8 8"><path style="fill:#fff;fill-opacity:1;fill-rule:evenodd;stroke:none;stroke-width:2;stroke-linecap:round;stroke-linejoin:round;stroke-miterlimit:4;stroke-dasharray:none;stroke-opacity:1" d="M6.047 3.023a3.017 3.017 0 0 0-3.024 3.024v18.142a3.017 3.017 0 0 0 3.024 3.024h18.142a3.017 3.017 0 0 0 3.024-3.024V6.047a3.017 3.017 0 0 0-3.024-3.024H6.047zm4.935 2.414a1 1 0 0 1 .997 1.004v6.223a1 1 0 0 1-.997.998 1 1 0 0 1-1.003-.998V6.441a1 1 0 0 1 1.003-1.003zm8.276 0a1 1 0 0 1 .996 1.004v6.223a1 1 0 0 1-.996.998 1 1 0 0 1-.998-.998V6.441a1 1 0 0 1 .998-1.003zm-4.143 6.223a1 1 0 0 1 .319.053 1 1 0 0 1 .634 1.262l-1.632 4.91h2.753a1 1 0 0 1 .997 1.004 1 1 0 0 1-.997.996h-4.14a1 1 0 0 1-.953-1.315l2.074-6.222a1 1 0 0 1 .945-.688zm-6.207 7.324a1 1 0 0 1 1.004 1.004s-.01.696.574 1.477c.585.781 1.748 1.668 4.63 1.668 2.88 0 4.051-.887 4.636-1.668.584-.781.576-1.477.576-1.477a1 1 0 0 1 .996-1.004 1 1 0 0 1 1.004 1.004s-.007 1.379-.974 2.672c-.968 1.294-2.912 2.473-6.239 2.473s-5.263-1.18-6.23-2.473c-.968-1.293-.975-2.672-.975-2.672a1 1 0 0 1 .998-1.004z" transform="scale(.26458)"/></svg>