<?xml version="1.0" encoding="UTF-8" standalone="no"?>
<!-- Created with Inkscape (http://www.inkscape.org/) -->

<svg
   width="64"
   height="64"
   viewBox="0 0 64 63.999997"
   version="1.1"
   id="svg1"
   xmlns="http://www.w3.org/2000/svg"
   xmlns:svg="http://www.w3.org/2000/svg">
  <defs
     id="defs1" />
  <path
     style="color:#000000;fill:#d6d6d6;paint-order:markers fill stroke;stroke:none;fill-opacity:1"
     d="M 8 7 A 1.0001 1.0001 0 0 0 7 8 L 7 36 L 7 56 A 1.0001 1.0001 0 0 0 8 57 L 56 57 A 1.0001 1.0001 0 0 0 57 56 L 57 28 L 57 16 A 1.0001 1.0001 0 0 0 56 15 L 42.5 15 L 36.800781 7.4003906 A 1.0001 1.0001 0 0 0 36 7 L 8 7 z M 9 9 L 35.5 9 L 41.199219 16.599609 A 1.0001 1.0001 0 0 0 42 17 L 55 17 L 55 27 L 28 27 A 1.0001 1.0001 0 0 0 27.199219 27.400391 L 21.5 35 L 9 35 L 9 9 z M 28.5 29 L 55 29 L 55 55 L 9 55 L 9 37 L 22 37 A 1.0001 1.0001 0 0 0 22.800781 36.599609 L 28.5 29 z " />
</svg>
