<svg xmlns="http://www.w3.org/2000/svg" width="8mm" height="8mm" viewBox="0 0 8 8"><path style="fill:#fff;fill-opacity:1;stroke:none;stroke-width:.241921px;stroke-linecap:butt;stroke-linejoin:miter;stroke-opacity:1" d="M158.132 157.302c-.945-.039-1.762.55-2.248 1.764 1.326.029 1.922-.285 3.22-.284 1.298-.001 1.894.313 3.22.284-.486-1.214-1.304-1.803-2.249-1.764a1.977 1.977 0 0 0-.971.319 1.977 1.977 0 0 0-.972-.32zm-2.2 2.296c.768 1.487 1.604 1.294 3.172 1.294 1.567 0 2.404.193 3.172-1.294-.632.332-2.141-.113-3.172.083-1.03-.196-2.54.249-3.172-.083z" transform="translate(-155.104 -155.104)"/></svg>