<?xml version="1.0" encoding="UTF-8" standalone="no"?>
<!-- Created with Inkscape (http://www.inkscape.org/) -->

<svg
   width="64"
   height="64"
   viewBox="0 0 64 63.999997"
   version="1.1"
   id="svg1"
   xmlns="http://www.w3.org/2000/svg"
   xmlns:svg="http://www.w3.org/2000/svg">
  <defs
     id="defs1" />
  <path
     style="color:#000000;fill:#d6d6d6;paint-order:markers fill stroke;fill-opacity:1"
     d="M 32 7 C 18.204754 7 7 18.204754 7 32 C 7 45.795246 18.204754 57 32 57 L 37 57 C 40.301858 57 43 54.301858 43 51 C 43 47.698143 40.301857 45 37 45 L 35.515625 45 A 1.0001 1.0001 0 0 0 35.4375 45.003906 C 34.192796 45.102444 33.138349 44.197119 33.015625 42.960938 C 33.039423 41.866271 33.898909 41 35 41 L 48 41 C 52.958708 41 57 36.958708 57 32 C 57 18.204754 45.795246 7 32 7 z M 32 9 C 44.714368 9 55 19.285632 55 32 C 55 35.87783 51.87783 39 48 39 L 35 39 C 32.80271 39 31 40.80271 31 43 A 1.0001 1.0001 0 0 0 31.003906 43.078125 C 31.188999 45.416172 33.257656 47.181187 35.595703 46.996094 L 35.515625 47 L 37 47 C 39.220979 47 41 48.779021 41 51 C 41 53.220979 39.220979 55 37 55 L 32 55 C 19.285632 55 9 44.714368 9 32 C 9 19.285632 19.285632 9 32 9 z M 29 13 C 25.698142 13 23 15.698142 23 19 C 23 22.301858 25.698142 25 29 25 C 32.301858 25 35 22.301858 35 19 C 35 15.698142 32.301858 13 29 13 z M 29 15 C 31.22098 15 33 16.77902 33 19 C 33 21.22098 31.22098 23 29 23 C 26.77902 23 25 21.22098 25 19 C 25 16.77902 26.77902 15 29 15 z M 43 20 C 39.145859 20 36 23.145859 36 27 C 36 30.854141 39.145859 34 43 34 C 46.854141 34 50 30.854141 50 27 C 50 23.145859 46.854141 20 43 20 z M 43 22 C 45.773263 22 48 24.226737 48 27 C 48 29.773263 45.773263 32 43 32 C 40.226737 32 38 29.773263 38 27 C 38 24.226737 40.226737 22 43 22 z M 18 24 C 15.250427 24 13 26.250427 13 29 C 13 31.749573 15.250427 34 18 34 C 20.749573 34 23 31.749573 23 29 C 23 26.250427 20.749573 24 18 24 z M 18 26 C 19.668695 26 21 27.331305 21 29 C 21 30.668695 19.668695 32 18 32 C 16.331305 32 15 30.668695 15 29 C 15 27.331305 16.331305 26 18 26 z " />
</svg>
