<?xml version="1.0" encoding="UTF-8"?>
<!-- Created with Inkscape (http://www.inkscape.org/) -->
<svg width="64" height="64" version="1.1" viewBox="0 0 64 64" xmlns="http://www.w3.org/2000/svg">
 <path d="m8 7a1.0001 1.0001 0 0 0-1 1v48a1.0001 1.0001 0 0 0 1 1h48a1.0001 1.0001 0 0 0 1-1v-48a1.0001 1.0001 0 0 0-1-1h-48zm1 2h46v46h-46v-46zm3 2c-0.55226 5.5e-5 -0.99994 0.44774-1 1v4c5.5e-5 0.55226 0.44774 0.99994 1 1h20c0.55226-5.5e-5 0.99994-0.44774 1-1v-4c-5.5e-5 -0.55226-0.44774-0.99994-1-1h-20zm24 0c-0.55226 5.5e-5 -0.99994 0.44774-1 1v4c5.5e-5 0.55226 0.44774 0.99994 1 1h4c0.55226-5.5e-5 0.99994-0.44774 1-1v-4c-5.5e-5 -0.55226-0.44774-0.99994-1-1h-4zm8 0c-0.55226 5.5e-5 -0.99994 0.44774-1 1v4c5.5e-5 0.55226 0.44774 0.99994 1 1h4c0.55226-5.5e-5 0.99994-0.44774 1-1v-4c-5.5e-5 -0.55226-0.44774-0.99994-1-1h-4zm-32 8a1 1 0 0 0-1 1 1 1 0 0 0 1 1h20a1 1 0 0 0 1-1 1 1 0 0 0-1-1h-20zm0 4a1 1 0 0 0-1 1 1 1 0 0 0 1 1h20a1 1 0 0 0 1-1 1 1 0 0 0-1-1h-20zm4 8a1.0001 1.0001 0 0 0-1 1v20a1.0001 1.0001 0 0 0 1 1h16a1.0001 1.0001 0 0 0 1-1v-20a1.0001 1.0001 0 0 0-1-1h-16zm20 0a1.0001 1.0001 0 0 0-1 1v20a1.0001 1.0001 0 0 0 1 1h16a1.0001 1.0001 0 0 0 1-1v-20a1.0001 1.0001 0 0 0-1-1h-16z" fill="#d6d6d6" stop-color="#000000" stroke-linecap="round" stroke-linejoin="round"/>
</svg>
