<?xml version="1.0" encoding="UTF-8"?>
<!-- Created with Inkscape (http://www.inkscape.org/) -->
<svg width="64" height="64" version="1.1" viewBox="0 0 16.933 16.933" xmlns="http://www.w3.org/2000/svg">
 <path d="m8.4325 4.7636a0.52922 0.52922 0 0 0-0.2589 0.087333l-3.1755 2.1172a0.52917 0.52917 0 0 0-0.14676 0.73432 0.52917 0.52917 0 0 0 0.73432 0.14676l2.881-1.9218 2.883 1.9218a0.52917 0.52917 0 0 0 0.73226-0.14676 0.52917 0.52917 0 0 0-0.14624-0.73432l-3.176-2.1172a0.52922 0.52922 0 0 0-0.32711-0.087333zm0 2.1172a0.52922 0.52922 0 0 0-0.2589 0.087333l-3.1755 2.1172a0.52917 0.52917 0 0 0-0.14676 0.73277 0.52917 0.52917 0 0 0 0.73432 0.14624l2.881-1.9198 2.883 1.9198a0.52917 0.52917 0 0 0 0.73226-0.14624 0.52917 0.52917 0 0 0-0.14624-0.73277l-3.176-2.1172a0.52922 0.52922 0 0 0-0.32711-0.087333zm0 2.1172a0.52922 0.52922 0 0 0-0.2589 0.087333l-3.1755 2.1156a0.52917 0.52917 0 0 0-0.14676 0.73432 0.52917 0.52917 0 0 0 0.73432 0.14624l2.881-1.9198 2.883 1.9198a0.52917 0.52917 0 0 0 0.73226-0.14624 0.52917 0.52917 0 0 0-0.14624-0.73432l-3.176-2.1156a0.52922 0.52922 0 0 0-0.32711-0.087333z" fill="#222" stop-color="#000000"/>
</svg>
