<?xml version="1.0" encoding="UTF-8" standalone="no"?>
<!-- Created with Inkscape (http://www.inkscape.org/) -->

<svg
   width="64"
   height="64"
   viewBox="0 0 64 63.999997"
   version="1.1"
   id="svg1"
   xmlns="http://www.w3.org/2000/svg"
   xmlns:svg="http://www.w3.org/2000/svg">
  <defs
     id="defs1" />
  <path
     id="path16"
     style="color:#000000;fill:#000000;stroke-linecap:round;stroke-linejoin:round;stroke-dashoffset:6.138;-inkscape-stroke:none;paint-order:markers fill stroke;stroke:none;fill-opacity:1"
     d="M 32 7 C 18.204754 7 7 18.204754 7 32 C 7 45.795246 18.204754 57 32 57 C 45.795246 57 57 45.795246 57 32 C 57 18.204754 45.795246 7 32 7 z M 32 9 C 44.714368 9 55 19.285632 55 32 C 55 44.714368 44.714368 55 32 55 C 19.285632 55 9 44.714368 9 32 C 9 19.285632 19.285632 9 32 9 z M 32 20 C 27.869718 20 24.5 23.369718 24.5 27.5 C 24.5 30.042066 25.778039 32.294793 27.722656 33.652344 C 25.025991 34.561256 23.331616 36.291764 22.375 38.013672 C 20.987556 40.51107 21 43 21 43 A 1 1 0 0 0 22 44 A 1 1 0 0 0 23 43 C 23 43 23.012451 40.988921 24.125 38.986328 C 25.237552 36.983735 27.30001 35 32 35 C 36.69999 35 38.762448 36.983735 39.875 38.986328 C 40.987552 40.988921 41 43 41 43 A 1 1 0 0 0 42 44 A 1 1 0 0 0 43 43 C 43 43 43.012439 40.51107 41.625 38.013672 C 40.668384 36.291764 38.974009 34.561256 36.277344 33.652344 C 38.221961 32.294793 39.5 30.042066 39.5 27.5 C 39.5 23.369718 36.130282 20 32 20 z M 32 22 C 35.049404 22 37.5 24.450596 37.5 27.5 C 37.5 30.549404 35.049404 33 32 33 C 28.950596 33 26.5 30.549404 26.5 27.5 C 26.5 24.450596 28.950596 22 32 22 z " />
</svg>
