<?xml version="1.0" encoding="UTF-8" standalone="no"?>
<!-- Created with Inkscape (http://www.inkscape.org/) -->

<svg
   width="64"
   height="64"
   viewBox="0 0 64 63.999997"
   version="1.1"
   id="svg1"
   xmlns="http://www.w3.org/2000/svg"
   xmlns:svg="http://www.w3.org/2000/svg">
  <defs
     id="defs1" />
  <path
     style="color:#000000;fill:#d6d6d6;paint-order:markers stroke fill"
     d="M 32 7 C 18.204768 7 7 18.204768 7 32 C 7 45.795232 18.204768 57 32 57 C 45.795232 57 57 45.795232 57 32 C 57 18.204768 45.795232 7 32 7 z M 31 9.0253906 L 31 19.013672 C 27.897696 19.073938 25.064648 19.408077 22.53125 19.894531 C 24.23456 13.371584 26.741208 9.6857853 26.804688 9.59375 C 28.161626 9.2809822 29.562519 9.086724 31 9.0253906 z M 33 9.0253906 C 34.437481 9.086724 35.838374 9.2809822 37.195312 9.59375 C 37.258792 9.6857853 39.76544 13.371584 41.46875 19.894531 C 38.935352 19.408077 36.102304 19.073938 33 19.013672 L 33 9.0253906 z M 24.025391 10.419922 C 22.986595 12.392683 21.464041 15.777193 20.363281 20.363281 C 15.777193 21.464041 12.392683 22.986595 10.419922 24.025391 C 12.742141 17.733779 17.733779 12.742141 24.025391 10.419922 z M 39.974609 10.419922 C 46.266221 12.742141 51.257859 17.733779 53.580078 24.025391 C 51.607317 22.986595 48.222807 21.464041 43.636719 20.363281 C 42.535959 15.777193 41.013405 12.392683 39.974609 10.419922 z M 31 21.013672 L 31 42.986328 C 27.654447 42.920021 24.659718 42.52401 22.029297 41.970703 C 21.421255 39.080074 21 35.7496 21 32 C 21 28.2504 21.421255 24.919926 22.029297 22.029297 C 24.659718 21.47599 27.654447 21.079979 31 21.013672 z M 33 21.013672 C 36.345553 21.079979 39.340282 21.47599 41.970703 22.029297 C 42.578745 24.919926 43 28.2504 43 32 C 43 35.7496 42.578745 39.080074 41.970703 41.970703 C 39.340282 42.52401 36.345553 42.920021 33 42.986328 L 33 21.013672 z M 19.894531 22.53125 C 19.356141 25.33512 19 28.503645 19 32 C 19 35.496355 19.356141 38.66488 19.894531 41.46875 C 13.371584 39.76544 9.6857853 37.258792 9.59375 37.195312 C 9.2088268 35.525329 9 33.78788 9 32 C 9 30.21212 9.2088268 28.474671 9.59375 26.804688 C 9.6857853 26.741208 13.371584 24.23456 19.894531 22.53125 z M 44.105469 22.53125 C 50.628416 24.23456 54.314215 26.741208 54.40625 26.804688 C 54.791173 28.474671 55 30.21212 55 32 C 55 33.78788 54.791173 35.525329 54.40625 37.195312 C 54.314215 37.258792 50.628416 39.76544 44.105469 41.46875 C 44.643859 38.66488 45 35.496355 45 32 C 45 28.503645 44.643859 25.33512 44.105469 22.53125 z M 10.419922 39.974609 C 12.392683 41.013405 15.777193 42.535959 20.363281 43.636719 C 21.464041 48.222807 22.986595 51.607317 24.025391 53.580078 C 17.733779 51.257859 12.742141 46.266221 10.419922 39.974609 z M 53.580078 39.974609 C 51.257859 46.266221 46.266221 51.257859 39.974609 53.580078 C 41.013405 51.607317 42.535959 48.222807 43.636719 43.636719 C 48.222807 42.535959 51.607317 41.013405 53.580078 39.974609 z M 22.53125 44.105469 C 25.064648 44.591923 27.897696 44.926062 31 44.986328 L 31 54.974609 C 29.562519 54.913276 28.161626 54.719018 26.804688 54.40625 C 26.741208 54.314215 24.23456 50.628416 22.53125 44.105469 z M 41.46875 44.105469 C 39.76544 50.628416 37.258792 54.314215 37.195312 54.40625 C 35.838374 54.719018 34.437481 54.913276 33 54.974609 L 33 44.986328 C 36.102304 44.926062 38.935352 44.591923 41.46875 44.105469 z " />
</svg>
